<svg width="28" height="32" viewBox="0 0 28 32" fill="none" xmlns="http://www.w3.org/2000/svg">
<path d="M13.7491 6C13.0577 6 12.4991 6.55859 12.4991 7.25V8C9.64756 8.57813 7.49913 11.1016 7.49913 14.125V15.1172C7.49913 16.8906 6.89366 18.6133 5.78819 19.9961L5.20616 20.7266C4.9796 21.0078 4.93663 21.3945 5.09288 21.7187C5.24913 22.043 5.57725 22.25 5.93663 22.25H21.5616C21.921 22.25 22.2491 22.043 22.4054 21.7187C22.5616 21.3945 22.5187 21.0078 22.2921 20.7266L21.7101 20C20.6046 18.6133 19.9991 16.8906 19.9991 15.1172V14.125C19.9991 11.1016 17.8507 8.57813 14.9991 8V7.25C14.9991 6.55859 14.4405 6 13.7491 6ZM13.7491 9.75C16.1671 9.75 18.1241 11.707 18.1241 14.125V15.1172C18.1241 16.9883 18.6671 18.8125 19.6749 20.375H7.82335C8.83116 18.8125 9.37413 16.9883 9.37413 15.1172V14.125C9.37413 11.707 11.3312 9.75 13.7491 9.75ZM16.2491 23.5H13.7491H11.2491C11.2491 24.1641 11.5108 24.8008 11.9796 25.2695C12.4483 25.7383 13.0851 26 13.7491 26C14.4132 26 15.0499 25.7383 15.5187 25.2695C15.9874 24.8008 16.2491 24.1641 16.2491 23.5Z" fill="black"/>
</svg>
