<svg width="32" height="32" viewBox="0 0 32 32" fill="none" xmlns="http://www.w3.org/2000/svg">
<path d="M12.2503 20.3756C13.2855 20.3756 14.1254 21.2155 14.1254 22.2507V22.8757L16.9575 20.7506C17.2817 20.5084 17.6763 20.3756 18.0826 20.3756H23.5008C23.8445 20.3756 24.1258 20.0944 24.1258 19.7506V8.50011C24.1258 8.15634 23.8445 7.87508 23.5008 7.87508H8.50011C8.15634 7.87508 7.87508 8.15634 7.87508 8.50011V19.7506C7.87508 20.0944 8.15634 20.3756 8.50011 20.3756H12.2503ZM14.1254 25.2196L14.1175 25.2274L13.9183 25.3758L13.2503 25.8759C13.0628 26.0165 12.8089 26.0399 12.594 25.9345C12.3792 25.829 12.2503 25.6141 12.2503 25.3758V24.5438V24.2938V24.282V24.1258V22.2507H10.3752H8.50011C7.12114 22.2507 6 21.1296 6 19.7506V8.50011C6 7.12114 7.12114 6 8.50011 6H23.5008C24.8797 6 26.0009 7.12114 26.0009 8.50011V19.7506C26.0009 21.1296 24.8797 22.2507 23.5008 22.2507H18.0826L14.1254 25.2196Z" fill="black"/>
<circle cx="25" cy="6" r="4" fill="#EA5414"/>
</svg>
