<svg width="23" height="20" viewBox="0 0 23 20" fill="none" xmlns="http://www.w3.org/2000/svg">
<path d="M19.0703 2.30859C18.6758 3.89062 17.2539 5 15.625 5C13.9961 5 12.5742 3.89062 12.1797 2.30859L11.8359 0.945313C11.6719 0.277344 10.9922 -0.128906 10.3203 0.0390625C9.64844 0.207031 9.24609 0.882812 9.41406 1.55469L9.75391 2.91797C10.1836 4.63672 11.3242 6.02734 12.8125 6.80859V18.75C12.8125 19.4414 13.3711 20 14.0625 20C14.7539 20 15.3125 19.4414 15.3125 18.75V13.75H15.9375V18.75C15.9375 19.4414 16.4961 20 17.1875 20C17.8789 20 18.4375 19.4414 18.4375 18.75V6.80859C19.9258 6.02734 21.0664 4.63672 21.4961 2.91797L21.8359 1.55469C22.0039 0.886719 21.5977 0.207031 20.9258 0.0390625C20.2539 -0.128906 19.5781 0.277344 19.4141 0.945313L19.0742 2.30859H19.0703ZM15.625 3.75C16.1223 3.75 16.5992 3.55246 16.9508 3.20083C17.3025 2.84919 17.5 2.37228 17.5 1.875C17.5 1.37772 17.3025 0.900805 16.9508 0.549175C16.5992 0.197544 16.1223 0 15.625 0C15.1277 0 14.6508 0.197544 14.2992 0.549175C13.9475 0.900805 13.75 1.37772 13.75 1.875C13.75 2.37228 13.9475 2.84919 14.2992 3.20083C14.6508 3.55246 15.1277 3.75 15.625 3.75ZM3.125 3.75C3.62228 3.75 4.09919 3.55246 4.45083 3.20083C4.80246 2.84919 5 2.37228 5 1.875C5 1.37772 4.80246 0.900805 4.45083 0.549175C4.09919 0.197544 3.62228 0 3.125 0C2.62772 0 2.15081 0.197544 1.79917 0.549175C1.44754 0.900805 1.25 1.37772 1.25 1.875C1.25 2.37228 1.44754 2.84919 1.79917 3.20083C2.15081 3.55246 2.62772 3.75 3.125 3.75ZM2.8125 5C1.43359 5 0.3125 6.12109 0.3125 7.5V11.25V11.2734V18.75C0.3125 19.4414 0.871094 20 1.5625 20C2.25391 20 2.8125 19.4414 2.8125 18.75V13.75H3.4375V18.75C3.4375 19.4414 3.99609 20 4.6875 20C5.37891 20 5.9375 19.4414 5.9375 18.75V9.87109L6.44531 10.6719C6.67578 11.0313 7.07422 11.2539 7.5 11.2539H9.375C10.0664 11.2539 10.625 10.6953 10.625 10.0039C10.625 9.3125 10.0664 8.75391 9.375 8.75391H8.1875L6.72656 6.45312C6.15625 5.54687 5.16016 5 4.08984 5H2.8125Z" fill="black"/>
</svg>
