<svg width="23" height="20" viewBox="0 0 23 20" fill="none" xmlns="http://www.w3.org/2000/svg">
<g clip-path="url(#clip0_171_1612)">
<path d="M3.125 3.75C3.62228 3.75 4.09919 3.55246 4.45083 3.20083C4.80246 2.84919 5 2.37228 5 1.875C5 1.37772 4.80246 0.900805 4.45083 0.549175C4.09919 0.197544 3.62228 0 3.125 0C2.62772 0 2.15081 0.197544 1.79917 0.549175C1.44754 0.900805 1.25 1.37772 1.25 1.875C1.25 2.37228 1.44754 2.84919 1.79917 3.20083C2.15081 3.55246 2.62772 3.75 3.125 3.75ZM2.5 5C1.12109 5 0 6.12109 0 7.5V12.5C0 13.1914 0.558594 13.75 1.25 13.75C1.63281 13.75 1.97266 13.5781 2.20313 13.3125L3.14063 18.957C3.25391 19.6367 3.89844 20.0977 4.57812 19.9844C5.25781 19.8711 5.71875 19.2266 5.60547 18.5469L4.80859 13.75H5.42188L6.59375 19.0195C6.74219 19.6953 7.41016 20.1172 8.08594 19.9688C8.76172 19.8203 9.18359 19.1523 9.03516 18.4766L6.79688 8.39844L11.3398 10.5C11.3594 10.5117 11.3828 10.5195 11.4023 10.5273C11.7383 10.668 12.1055 10.6484 12.4141 10.5C12.5469 10.4375 12.6719 10.3477 12.7773 10.2383C12.8984 10.1133 12.9922 9.96484 13.0547 9.79297C13.0586 9.78125 13.0625 9.76562 13.0664 9.75391L13.1641 9.46094C13.3867 8.79297 13.8789 8.25391 14.5195 7.96875L14.832 7.83203C14.8711 7.81641 14.9063 7.80078 14.9453 7.78516L14.2852 10.2656C14.0664 11.0898 14.2812 11.9687 14.8594 12.5977L17.6211 15.6094L18.4805 19.0508C18.6484 19.7188 19.3281 20.1289 19.9961 19.9609C20.6641 19.793 21.0742 19.1133 20.9063 18.4453L20.0078 14.8477C19.9336 14.543 19.7813 14.2656 19.5703 14.0352L17.6367 11.9258L18.3906 9.36719L18.7656 10.2656C18.9375 10.6797 19.2539 11.0195 19.6563 11.2227L20.6992 11.7422C21.3164 12.0508 22.0664 11.8008 22.375 11.1836C22.6836 10.5664 22.4336 9.81641 21.8164 9.50781L20.9766 9.08984L20.3789 7.65234C19.707 6.04687 18.1367 5 16.3945 5C15.5039 5 14.625 5.1875 13.8125 5.54688L13.5 5.68359C12.5469 6.10937 11.7578 6.81641 11.2305 7.69922L6.14453 5.34766C5.65234 5.11719 5.11328 5 4.57031 5H2.5ZM18.125 3.75C18.6223 3.75 19.0992 3.55246 19.4508 3.20083C19.8025 2.84919 20 2.37228 20 1.875C20 1.37772 19.8025 0.900805 19.4508 0.549175C19.0992 0.197544 18.6223 0 18.125 0C17.6277 0 17.1508 0.197544 16.7992 0.549175C16.4475 0.900805 16.25 1.37772 16.25 1.875C16.25 2.37228 16.4475 2.84919 16.7992 3.20083C17.1508 3.55246 17.6277 3.75 18.125 3.75ZM13.6602 13.1094L12.6836 15.5469L10.3633 17.8672C9.875 18.3555 9.875 19.1484 10.3633 19.6367C10.8516 20.125 11.6445 20.125 12.1328 19.6367L14.543 17.2266C14.7227 17.0469 14.8633 16.832 14.957 16.5977L15.5234 15.1836L13.9336 13.4492C13.8359 13.3437 13.7461 13.2305 13.6602 13.1133V13.1094Z" fill="black"/>
</g>
<defs>
<clipPath id="clip0_171_1612">
<rect width="22.5" height="20" fill="white"/>
</clipPath>
</defs>
</svg>
