<svg width="31" height="32" viewBox="0 0 31 32" fill="none" xmlns="http://www.w3.org/2000/svg">
<path d="M20.5925 14.1238C20.5925 15.9165 20.034 17.5725 19.0932 18.9161L23.8384 23.8646C24.3069 24.3528 24.3069 25.1456 23.8384 25.6338C23.3699 26.1221 22.609 26.1221 22.1405 25.6338L17.3953 20.6853C16.1059 21.6696 14.5167 22.2476 12.7962 22.2476C8.48957 22.2476 5 18.6114 5 14.1238C5 9.63619 8.48957 6 12.7962 6C17.1029 6 20.5925 9.63619 20.5925 14.1238ZM12.7962 19.748C13.505 19.748 14.2069 19.6025 14.8617 19.3199C15.5166 19.0372 16.1116 18.623 16.6128 18.1007C17.114 17.5784 17.5115 16.9584 17.7828 16.2761C18.054 15.5937 18.1936 14.8624 18.1936 14.1238C18.1936 13.3852 18.054 12.6539 17.7828 11.9715C17.5115 11.2892 17.114 10.6692 16.6128 10.1469C16.1116 9.62466 15.5166 9.21039 14.8617 8.92775C14.2069 8.64511 13.505 8.49963 12.7962 8.49963C12.0874 8.49963 11.3856 8.64511 10.7307 8.92775C10.0759 9.21039 9.4809 9.62466 8.9797 10.1469C8.47851 10.6692 8.08094 11.2892 7.80969 11.9715C7.53845 12.6539 7.39884 13.3852 7.39884 14.1238C7.39884 14.8624 7.53845 15.5937 7.80969 16.2761C8.08094 16.9584 8.47851 17.5784 8.9797 18.1007C9.4809 18.623 10.0759 19.0372 10.7307 19.3199C11.3856 19.6025 12.0874 19.748 12.7962 19.748Z" fill="black"/>
</svg>
